<svg width="31" height="31" viewBox="0 0 31 31" fill="none" xmlns="http://www.w3.org/2000/svg">
<path d="M14.7277 29.9367C14.3746 29.5737 14.1897 29.1116 14.173 28.5506C14.1563 27.9895 14.3252 27.5275 14.6796 27.1644L24.1178 17.4615H2.59292C2.04717 17.4615 1.58939 17.2714 1.21956 16.8912C0.84974 16.511 0.665471 16.041 0.666755 15.4813C0.666755 14.9202 0.851666 14.4496 1.22149 14.0694C1.59131 13.6892 2.04845 13.4997 2.59292 13.5011H24.1178L14.6796 3.79809C14.3264 3.43506 14.1576 2.97301 14.173 2.41195C14.1884 1.8509 14.3733 1.38885 14.7277 1.02582C15.0809 0.66278 15.5303 0.481262 16.076 0.481262C16.6218 0.481262 17.0712 0.66278 17.4244 1.02582L30.137 14.0951C30.3296 14.2601 30.4664 14.4667 30.5473 14.7149C30.6282 14.9631 30.668 15.2186 30.6667 15.4813C30.6667 15.7453 30.6269 15.9928 30.5473 16.2238C30.4677 16.4549 30.3309 16.6694 30.137 16.8674L17.4244 29.9367C17.0712 30.2997 16.6218 30.4813 16.076 30.4813C15.5303 30.4813 15.0809 30.2997 14.7277 29.9367Z" fill="#F3F6F9"/>
</svg>
